<svg width="483" height="139" viewBox="0 0 483 139" fill="black" xmlns="http://www.w3.org/2000/svg">
<path fill-rule="evenodd" clip-rule="evenodd" d="M49.2899 17.4635C49.2899 19.0658 49.2899 20.467 49.2899 21.6738C49.2899 21.9754 49.1558 22.1229 48.8809 22.1229H41.6873C41.3454 22.1229 41.1912 22.009 41.1912 21.7073V17.1216C43.531 17.1216 46.0652 17.1216 48.9078 17.1216C49.1558 17.1216 49.2899 17.2355 49.2899 17.4635ZM38.3955 22.3442C38.3955 23.1286 38.8916 23.8727 39.3408 24.2482C39.8838 24.7041 40.5342 24.932 41.513 24.932H49.2899C51.1403 24.932 52.0856 23.9197 52.0856 22.1229V17.1216C52.0856 15.6064 50.8721 14.3125 49.2899 14.3125H38.3955V22.3442Z"/>
<path fill-rule="evenodd" clip-rule="evenodd" d="M163.932 20.5609C164.227 20.7553 164.723 20.9832 165.172 20.9899C167.86 20.9899 170.555 20.9899 173.251 20.9899C173.887 20.9899 173.908 22.1229 173.251 22.1229H163.55L163.107 24.932H173.854C174.357 24.932 174.846 24.751 175.262 24.4627C177.005 23.2493 176.931 19.763 175.248 18.6636C174.504 18.2144 173.733 18.2546 173.251 18.2546H165.916C165.266 18.2546 165.286 17.1283 165.916 17.1149L176.013 17.1216L176.462 14.3125H165.373C164.843 14.3125 164.347 14.4734 163.932 14.7483C162.182 15.9215 162.215 19.4345 163.932 20.5609Z"/>
<path fill-rule="evenodd" clip-rule="evenodd" d="M53.3252 24.932H56.1209V19.401L59.8149 24.932H62.8989L66.5996 19.401V24.932H69.3886V14.3125H66.5996L61.3569 22.1363L56.1209 14.3125H53.3252V24.932Z"/>
<path fill-rule="evenodd" clip-rule="evenodd" d="M104.419 19.401L105.612 17.5305C105.827 17.1886 105.974 17.1216 106.544 17.1216H109.266V19.401C107.496 19.401 105.88 19.401 104.419 19.401ZM97.5938 24.932H100.912C101.462 24.1141 101.985 23.256 102.521 22.4246C102.609 22.2838 102.722 22.1229 102.944 22.1229H109.266L109.273 24.932H112.062V14.3125H106.557C104.432 14.3125 103.607 15.4388 102.535 17.1216C102.3 17.497 102.086 17.859 101.905 18.154L97.5938 24.932Z"/>
<path fill-rule="evenodd" clip-rule="evenodd" d="M113.657 24.932H116.453V18.2546L124.538 24.932H127.334V14.3125H124.538V20.9899L116.453 14.3125H113.657V24.932Z"/>
<path fill-rule="evenodd" clip-rule="evenodd" d="M128.856 22.1229C128.856 23.7923 129.835 24.932 131.652 24.932H142.526L142.198 22.1229H132.101C131.847 22.1229 131.652 21.9687 131.652 21.6671V17.1216H142.084L142.526 14.3125H128.856V22.1229Z"/>
<path fill-rule="evenodd" clip-rule="evenodd" d="M74.3633 22.1229C74.3633 23.7923 75.3421 24.932 77.1589 24.932H88.0332L87.7047 22.1229H77.6081C77.3534 22.1229 77.1589 21.9687 77.1589 21.6671V17.1216H87.5907L88.0332 14.3125H74.3633V22.1229Z"/>
<path fill-rule="evenodd" clip-rule="evenodd" d="M23.458 17.1216H28.9018V24.932H31.6975V17.1216H37.1347V14.3125H23.458V17.1216Z"/>
<path fill-rule="evenodd" clip-rule="evenodd" d="M149.357 20.9899V24.932H152.153V20.9899L157.731 14.3125H154.131L150.752 18.3552L147.373 14.3125H143.779L149.357 20.9899Z"/>
<path fill-rule="evenodd" clip-rule="evenodd" d="M89.3008 24.932H96.7827L98.5593 22.1229H92.0964V14.3125H89.3008V24.932Z"/>
<path fill-rule="evenodd" clip-rule="evenodd" d="M157.926 15.7137V17.497H159.984L162.706 14.3125H159.126L157.926 15.7137Z"/>
<path fill-rule="evenodd" clip-rule="evenodd" d="M14.616 8.10377C14.7299 7.95628 14.7836 7.76856 14.7433 7.59425C14.0662 7.81549 13.3355 7.74174 12.5444 7.37971C12.5108 7.3663 12.5041 7.39312 12.5242 7.45346C12.6516 7.94957 12.9801 8.21774 13.5165 8.27138C13.6975 8.29149 13.8718 8.17081 14.0327 7.91605C14.1266 7.77526 14.207 7.76185 14.274 7.86912C14.4417 8.1574 14.5422 8.23115 14.616 8.10377ZM21.3537 9.79994C21.4476 9.79994 21.5213 9.87369 21.5213 9.96755C21.5213 10.0614 21.4476 10.1352 21.3537 10.1352C21.2599 10.1352 21.1794 10.0614 21.1794 9.96755C21.1794 9.87369 21.2599 9.79994 21.3537 9.79994ZM11.3443 5.83774C11.2974 5.65672 11.351 5.59638 11.5119 5.65002C11.5991 5.21424 11.8806 4.89244 12.3633 4.6712C12.9332 4.46337 13.5701 4.517 14.2606 4.8254C14.7299 5.10027 15.0048 5.469 15.0853 5.9316C15.1389 6.31374 15.159 6.68917 15.1456 7.0445C15.1925 7.13836 15.1724 7.25233 15.092 7.38642C15.0182 7.46687 14.9244 7.52721 14.797 7.57413C14.8171 7.78867 14.8037 8.02332 14.7635 8.26467C14.7366 8.36524 14.7635 8.41217 14.8506 8.39876C14.9177 8.40546 14.9579 8.37864 14.9713 8.32501C15.0249 8.1507 15.1255 8.07025 15.2663 8.07025C15.4875 8.03002 15.6417 8.09036 15.7289 8.23115C15.749 8.31831 15.7892 8.37194 15.8562 8.37864C16.1982 8.4725 16.5669 8.55966 16.9692 8.65352C17.0295 8.67363 17.0764 8.66022 17.1032 8.62C17.2507 8.53284 17.3915 8.51943 17.5323 8.57307C17.6195 8.60659 17.6932 8.63341 17.7535 8.66022C17.7804 8.74067 17.7737 8.88817 17.7334 9.1027C17.7334 9.2502 17.7267 9.38428 17.7066 9.50496C17.8139 9.52507 18.0016 9.53177 18.2765 9.53177C18.3368 9.55189 18.3905 9.59882 18.4307 9.67927C18.5178 9.77313 18.6318 9.88039 18.7726 9.98096C19.7983 10.1083 20.2542 10.1955 20.1403 10.2625C20.4084 10.3028 20.7369 10.343 21.1258 10.3832C21.1325 10.343 21.1325 10.3028 21.1325 10.2759C20.9448 10.1553 20.9448 9.90051 21.0856 9.7329C21.3068 9.51166 21.6822 9.66586 21.6621 9.97425C21.6554 10.1754 21.575 10.2961 21.4141 10.3363C21.4074 10.3765 21.4074 10.3966 21.4074 10.4033C21.575 10.4167 21.6889 10.4704 21.6755 10.5843C21.7694 10.6045 21.7493 10.7654 21.6621 10.8592C21.5817 10.9531 21.5347 11.0805 21.5347 11.2347C21.528 11.3017 21.528 11.3553 21.528 11.3888C21.8431 11.4425 22.1247 11.5162 22.3862 11.5632C22.3929 11.543 22.4063 11.5028 22.413 11.4827C22.6946 11.5498 22.9829 11.6101 23.2644 11.6704C23.2778 11.9252 23.2309 12.0928 23.1169 12.1799C22.8354 12.1397 22.5739 12.0794 22.3258 11.9989C22.3258 11.9587 22.3325 11.9185 22.3258 11.8716C21.9638 11.7844 21.6822 11.7107 21.4744 11.6637C21.3604 11.8581 21.1057 11.8984 20.6967 11.7911C20.0933 11.6838 19.6106 11.5833 19.2553 11.4894C19.1413 11.4425 19.0609 11.4693 19.0139 11.5632C18.967 11.7107 18.8329 11.7911 18.6117 11.8045C18.2027 11.838 17.8541 11.8648 17.5725 11.885C17.4384 11.9386 17.3647 12.0258 17.3513 12.1397C17.3714 12.5487 17.3915 13.018 17.4049 13.5543C17.1703 13.6214 16.9222 13.6951 16.6608 13.7689C16.52 13.8091 16.4194 13.7621 16.3725 13.6348C16.3524 13.4269 16.339 13.1454 16.339 12.7833C16.1043 12.9509 15.8965 13.1185 15.7289 13.2794C15.6417 13.3532 15.5411 13.3934 15.4205 13.3934C15.4071 13.7085 15.2864 13.9968 15.0719 14.2583C15.0719 14.4058 15.0719 14.5734 15.0719 14.7611C15.2193 15.0829 15.2193 15.2639 15.0786 15.3108C15.0853 15.6527 15.092 15.9611 15.0987 16.2293C15.7825 16.7992 15.6551 17.2014 15.9769 17.6171C16.2585 18.0596 16.5803 18.435 16.9423 18.7434C17.7133 19.5077 18.1759 20.1111 18.3234 20.5603C18.5111 21.0765 18.5715 21.5726 18.4977 22.0352C18.4709 22.3637 18.4575 22.6989 18.4642 23.0475C18.6385 23.7582 18.6854 24.3683 18.6117 24.8778C18.5715 24.9582 18.4977 25.0253 18.4039 25.0789C18.1156 25.3471 18.015 25.7493 18.1089 26.2857C18.1759 26.8488 18.4843 27.298 19.0341 27.6332C19.7045 28.0556 20.0062 28.3774 19.9257 28.6053C19.9123 28.6992 19.9592 28.7931 20.0665 28.8869C20.2073 29.1953 20.147 29.4233 19.8855 29.5707C19.443 29.792 18.9603 29.792 18.4508 29.5506C18.1089 29.4098 17.8474 29.1953 17.6597 28.9003C17.6128 28.8467 17.5926 28.7662 17.5994 28.6657C17.6128 28.5986 17.539 28.5048 17.3714 28.3841C17.1569 28.1964 17.0429 28.1427 17.0161 28.2366C16.9893 28.3104 16.8954 28.2835 16.7278 28.1495C16.3658 27.8947 16.1915 27.7003 16.225 27.5662C16.225 27.4187 16.2451 27.2712 16.2987 27.117C16.3524 26.7483 16.3725 26.3527 16.3591 25.9169C16.3524 25.7493 16.2585 25.6085 16.0842 25.5013C15.997 25.4476 15.9501 25.3069 15.9367 25.0722C15.93 24.918 15.9635 24.7839 16.044 24.6632C16.0641 24.623 16.0574 24.5828 16.0172 24.5359C15.8562 24.3884 15.7557 24.1805 15.7222 23.9124C15.6886 23.7179 15.7758 23.423 15.9903 23.0073C16.044 22.9336 16.0306 22.8665 15.9501 22.8062C15.5613 22.6319 15.34 22.424 15.2864 22.176C15.2596 21.8341 15.2596 21.6061 15.3065 21.4854C14.6763 21.2508 14.207 20.8686 13.8986 20.3524C13.8651 20.2854 13.8115 20.2317 13.7444 20.1982C13.1947 19.9636 12.7924 19.6552 12.5376 19.273C12.417 19.1524 12.2628 19.0384 12.0751 18.9378C11.9209 18.8708 11.7667 18.8909 11.6259 19.0116C11.4918 19.273 11.2303 19.5345 10.8549 19.8027C10.6538 19.9703 10.4526 20.1379 10.2649 20.2988C10.0705 20.4396 9.86266 20.5535 9.65483 20.6407C9.50063 20.7077 9.36654 20.8284 9.25257 20.996C8.9844 21.2776 8.6693 21.4653 8.31398 21.5592C8.26034 21.9883 8.07263 22.2497 7.75082 22.3503C7.28823 22.538 6.91279 22.7525 6.6044 23.0006C6.47031 23.1079 6.36975 23.2688 6.30271 23.4699C6.22225 23.7247 6.01442 23.9392 5.67251 24.1135C5.57865 24.1537 5.49149 24.1671 5.39763 24.1604C5.39093 24.5359 5.38422 24.851 5.38422 25.1191C5.37752 25.3538 5.25014 25.5214 4.99538 25.6085C4.82107 25.6152 4.66017 25.6756 4.52608 25.7829C4.43893 25.8432 4.3987 25.9706 4.3987 26.1516C4.4054 26.3527 4.29814 26.4868 4.0836 26.5673C3.80202 26.7147 3.34614 26.7952 2.70253 26.7952C2.26675 26.7684 2.04551 26.6745 2.0254 26.527C1.99858 26.3862 2.0321 26.2253 2.13937 26.0443C2.11926 25.8231 2.21982 25.6354 2.43436 25.4812C2.54163 25.4275 2.69582 25.327 2.90365 25.1862C3.25227 24.8711 3.55397 24.556 3.81543 24.2409C3.9294 24.1001 3.96293 23.9258 3.916 23.7179C3.86236 23.4632 3.90259 23.2285 4.03667 23.014C4.22439 22.8397 4.4054 22.6721 4.57301 22.5179C4.66017 22.4173 4.69369 22.3034 4.68698 22.1894C4.61994 21.8274 4.66687 21.5726 4.81436 21.4318C5.13617 21.2307 5.46468 21.0497 5.8133 20.8888C5.90045 20.8418 5.94068 20.7681 5.93397 20.6541C5.92056 20.4664 5.9809 20.2854 6.10828 20.1245C6.38316 19.7691 6.73178 19.3401 7.15414 18.8373C7.21448 18.7836 7.22789 18.73 7.19437 18.6764C7.0938 18.5892 7.05358 18.4685 7.07369 18.3143C7.0871 18.2339 7.18766 18.0864 7.36868 17.8853C7.60333 17.5567 7.85809 17.188 8.13296 16.7589C8.21341 16.6584 8.22682 16.5645 8.15978 16.4707C8.04581 16.3433 8.04581 16.1824 8.15308 16.0014C8.26705 15.8807 8.37432 15.7935 8.45477 15.7332C8.58885 15.6662 8.68941 15.6997 8.75646 15.8338C8.8168 15.9276 8.87043 15.9343 8.93077 15.8606C9.15201 15.7332 9.34643 15.5991 9.51404 15.4516C9.52074 15.2974 9.6146 15.2103 9.79561 15.1767C9.84925 15.1566 9.86266 15.0896 9.84255 14.9823C9.84925 14.6337 9.87607 14.2717 9.9364 13.8962C9.73528 13.8292 9.6146 13.5878 9.58108 13.1655C9.54085 12.8236 9.51404 12.4481 9.50063 12.0392C9.4604 11.9587 9.40677 11.9319 9.34643 11.952C8.33409 12.1799 7.75752 12.247 7.63014 12.1732C7.52958 12.1196 7.44243 12.1196 7.34857 12.1665C7.06699 12.2403 6.85245 12.2269 6.69155 12.1397C6.34964 11.7911 6.21555 11.4358 6.296 11.0737C6.296 10.9531 6.35634 10.8324 6.48372 10.7251C6.63792 10.6112 6.80552 10.3966 6.98654 10.0882C7.06028 9.88039 7.17426 9.7396 7.33516 9.67256C7.5631 9.55189 7.73071 9.45803 7.83127 9.38428C7.97206 9.24349 8.1866 9.096 8.46818 8.94851C8.62908 8.91498 8.73634 8.84794 8.78998 8.74067C8.95758 8.55966 9.15201 8.45909 9.37325 8.45239C9.6079 8.44569 9.80902 8.36524 9.99674 8.21774C10.2649 7.97639 10.6739 7.88253 11.237 7.93616C11.2303 7.73504 11.3175 7.59425 11.5052 7.5138C11.5119 7.48028 11.4985 7.44005 11.4449 7.40653C11.2571 7.3596 11.1231 7.22551 11.0426 7.01098C11.0292 6.93053 11.0359 6.82326 11.0694 6.69588C10.8884 6.7294 10.8214 6.68247 10.8616 6.55509C10.9152 6.50146 10.989 6.45453 11.0828 6.42101C11.1365 6.38748 11.1163 6.36067 11.0292 6.32715C10.875 6.23999 10.8281 6.14613 10.8817 6.05227C10.9219 5.89137 11.0091 5.81762 11.1298 5.83103C11.2303 5.92489 11.3041 5.9316 11.3443 5.83774Z"/>
<path d="M1.27408 23.9459V23.0609H0.958984V22.8799H1.80372V23.0609H1.48862V23.9459H1.27408Z"/>
<path d="M1.9375 23.9459V22.8799H2.2593L2.45373 23.6039L2.64144 22.8799H2.96325V23.9459H2.76212V23.1078L2.55429 23.9459H2.34646L2.13863 23.1078V23.9459H1.9375Z"/>
<path d="M44.7712 80.4757L47.1445 65.7196L48.6931 55.6096L50.1345 65.7196L52.3067 80.4757H44.7712ZM22.6941 58.8746C22.6941 64.6738 22.0974 66.4303 16.3988 66.4303H12.3629V46.9746H16.2982C22.0974 46.9746 22.6941 49.3546 22.6941 54.6308V58.8746ZM66.218 94.9434L55.2968 36.8311H41.7811L31.4901 92.074L27.0183 74.4016C31.6375 72.33 34.1986 67.8851 34.1986 58.6668V54.8386C34.1986 39.6267 27.7089 36.8311 16.1038 36.8311H0.757812V101.628H12.3629V76.0576H15.5138L22.0036 101.628H41.5732L43.7387 89.8616H53.2319L55.3974 101.628H77.4946V36.8311H66.218V94.9434Z"/>
<path d="M102.977 68.817L94.0806 36.8311H79.7871V101.628H90.9832V62.81L102.675 101.628H114.274V36.8311H102.977V68.817Z"/>
<path d="M347.052 63.5352C340.422 57.9974 337.975 55.9795 337.975 52.1446C337.975 49.0607 339.195 46.7142 343.58 46.7142C347.669 46.7142 348.889 48.6316 349.198 54.0621L361.239 52.8888C360.012 41.1765 356.137 35.6455 343.278 35.6455C332.665 35.6455 325.927 40.6469 325.927 52.5737C325.927 61.6177 331.338 66.5185 339.195 72.9077C346.744 79.2968 349.808 81.5293 349.808 86.1083C349.808 89.7286 348.789 92.2829 343.888 92.2829C338.786 92.2829 337.566 91.0024 337.258 81.6366L325.016 83.2322C325.418 95.1591 328.683 103.251 343.479 103.251C357.055 103.251 361.949 96.8619 361.949 86.1083C361.949 75.6765 355.728 70.883 347.052 63.5352Z"/>
<path d="M364 102.815H376.208V35.6455H364V102.815Z"/>
<path d="M310.749 138.106H316.857V0.353516H310.749V138.106Z"/>
<path d="M378.837 102.815H409.817V91.76H391.273V71.4797H406.653V60.9674H391.273V46.8014H409.817V35.6455H378.837V102.815Z"/>
<path d="M482.517 46.8014V35.6455H451.537V102.815H482.517V91.76H463.973V71.4797H479.353V60.9674H463.973V46.8014H482.517Z"/>
<path d="M429.916 46.6606C435.259 46.6606 435.997 48.2495 436.305 56.194L448.882 54.8196C448.038 43.6973 445.316 35.6455 430.231 35.6455C417.553 35.6455 411.372 41.3642 411.372 55.0342V83.1115C411.372 96.9893 417.238 102.815 428.032 102.815C432.645 102.815 435.997 101.649 438.511 99.3157L439.242 102.493H448.668V65.3051H430.754V75.5827H437.358V77.4934C437.25 89.4672 436.828 92.1153 430.754 92.1153C424.995 92.1153 423.842 89.4672 423.842 83.6345V54.9269C423.842 49.6306 425.096 46.6606 429.916 46.6606Z"/>
<path d="M167.773 83.2921C167.773 89.527 165.635 91.7059 161.243 91.7059C156.651 91.7059 154.915 89.527 154.915 83.1915V55.1611C154.915 49.5564 156.551 47.0624 161.243 47.0624C166.037 47.0624 167.773 49.4558 167.773 55.0605V83.2921ZM138.684 84.338C138.684 89.7215 137.973 92.0009 132.006 92.0009H127.655V72.1295H132.107C137.973 72.1295 138.684 73.7855 138.684 79.6852V84.338ZM127.655 46.459H131.604C137.571 46.459 138.181 48.5239 138.181 53.9074V54.8393C138.181 60.6385 137.571 62.5022 131.705 62.5022H127.655V46.459ZM231.356 72.6525C228.728 70.5406 226.402 68.583 224.438 66.5918L229.084 36.8317H217.861L214.153 62.9782L212.652 75.2738L210.949 62.9782L207.141 36.8317H195.925L191.714 63.0788L189.911 75.2738L188.61 63.0788L185.204 36.8317H173.78L174.203 39.8821C171.333 37.6228 167.183 36.2686 161.243 36.2686C154.258 36.2686 149.766 38.2329 146.943 41.3839C143.846 37.71 138.563 36.8317 131.403 36.8317H115.722V101.628H131.805C138.831 101.628 144.047 100.864 147.191 97.2235C150.081 100.354 154.573 102.191 161.243 102.191C175.53 102.191 179.915 94.1932 179.915 82.7759V80.9322L182.798 101.628H194.919L201.033 63.2866L206.94 101.628H227.716C223.975 100.462 221.521 98.3431 219.919 95.5072L221.991 82.2529L229.419 81.2942C229.721 90.5729 230.947 91.8333 236.049 91.8333C240.95 91.8333 241.969 89.3058 241.969 85.7257C241.969 81.1937 238.912 78.9746 231.356 72.6525Z"/>
<path d="M253.4 52.8408L241.359 54.0006C241.051 48.6238 239.824 46.7265 235.741 46.7265C231.357 46.7265 230.13 49.0462 230.13 52.1033C230.13 55.8979 232.584 57.8958 239.214 63.3799C247.889 70.6472 254.111 75.3939 254.111 85.7251C254.111 93.8238 251.262 99.4151 243.921 101.628H255.479V36.8311H243.572C250.082 38.9295 252.482 44.1789 253.4 52.8408Z"/>
<path d="M292.902 36.8311H281.545L287.465 52.8676L292.902 36.8311Z"/>
<path d="M279.862 101.628H293.378L286.332 82.8096L279.862 101.628Z"/>
<path d="M269.128 36.8311H267.693V101.628H268.082L280.532 67.4091L269.128 36.8311Z"/>
</svg>
