<svg width="745" height="193" viewBox="0 0 745 193" fill="none" xmlns="http://www.w3.org/2000/svg">
<path fill-rule="evenodd" clip-rule="evenodd" d="M75.0504 23.878C75.0504 26.1142 75.0504 28.0697 75.0504 29.7539C75.0504 30.1749 74.843 30.3808 74.4179 30.3808H63.2936C62.7648 30.3808 62.5264 30.2217 62.5264 29.8007V23.4008C66.1447 23.4008 70.0636 23.4008 74.4594 23.4008C74.843 23.4008 75.0504 23.5599 75.0504 23.878ZM58.2031 30.6896C58.2031 31.7843 58.9703 32.8228 59.6649 33.3468C60.5047 33.983 61.5104 34.3012 63.024 34.3012H75.0504C77.9118 34.3012 79.3736 32.8883 79.3736 30.3808V23.4008C79.3736 21.2863 77.4971 19.4805 75.0504 19.4805H58.2031V30.6896Z" fill="black"/>
<path fill-rule="evenodd" clip-rule="evenodd" d="M252.333 28.2007C252.789 28.4721 253.557 28.7902 254.251 28.7995C258.409 28.7995 262.576 28.7995 266.744 28.7995C267.729 28.7995 267.76 30.3808 266.744 30.3808H251.742L251.058 34.3012H267.677C268.455 34.3012 269.212 34.0485 269.854 33.6462C272.55 31.9527 272.436 27.0873 269.834 25.5528C268.683 24.9259 267.491 24.9821 266.744 24.9821H255.402C254.396 24.9821 254.428 23.4102 255.402 23.3915L271.016 23.4008L271.71 19.4805H254.562C253.743 19.4805 252.976 19.705 252.333 20.0886C249.627 21.726 249.679 26.6288 252.333 28.2007Z" fill="black"/>
<path fill-rule="evenodd" clip-rule="evenodd" d="M81.291 34.3012H85.6143V26.582L91.3268 34.3012H96.0958L101.819 26.582V34.3012H106.132V19.4805H101.819L93.7113 30.3995L85.6143 19.4805H81.291V34.3012Z" fill="black"/>
<path fill-rule="evenodd" clip-rule="evenodd" d="M160.302 26.582L162.148 23.9716C162.479 23.4944 162.707 23.4008 163.589 23.4008H167.798V26.582C165.061 26.582 162.562 26.582 160.302 26.582ZM149.748 34.3012H154.88C155.73 33.1597 156.539 31.962 157.368 30.8018C157.503 30.6053 157.679 30.3808 158.021 30.3808H167.798L167.808 34.3012H172.121V19.4805H163.609C160.323 19.4805 159.048 21.0524 157.389 23.4008C157.026 23.9248 156.694 24.4301 156.414 24.8417L149.748 34.3012Z" fill="black"/>
<path fill-rule="evenodd" clip-rule="evenodd" d="M174.588 34.3012H178.911V24.9821L191.414 34.3012H195.738V19.4805H191.414V28.7995L178.911 19.4805H174.588V34.3012Z" fill="black"/>
<path fill-rule="evenodd" clip-rule="evenodd" d="M198.094 30.3808C198.094 32.7106 199.607 34.3012 202.417 34.3012H219.233L218.725 30.3808H203.112C202.718 30.3808 202.417 30.1656 202.417 29.7445V23.4008H218.549L219.233 19.4805H198.094V30.3808Z" fill="black"/>
<path fill-rule="evenodd" clip-rule="evenodd" d="M113.824 30.3808C113.824 32.7106 115.338 34.3012 118.147 34.3012H134.964L134.456 30.3808H118.842C118.448 30.3808 118.147 30.1656 118.147 29.7445V23.4008H134.279L134.964 19.4805H113.824V30.3808Z" fill="black"/>
<path fill-rule="evenodd" clip-rule="evenodd" d="M35.1055 23.4008H43.5239V34.3012H47.8472V23.4008H56.2552V19.4805H35.1055V23.4008Z" fill="black"/>
<path fill-rule="evenodd" clip-rule="evenodd" d="M229.797 28.7995V34.3012H234.12V28.7995L242.746 19.4805H237.178L231.953 25.1224L226.728 19.4805H221.171L229.797 28.7995Z" fill="black"/>
<path fill-rule="evenodd" clip-rule="evenodd" d="M136.923 34.3012H148.493L151.24 30.3808H141.246V19.4805H136.923V34.3012Z" fill="black"/>
<path fill-rule="evenodd" clip-rule="evenodd" d="M243.048 21.436V23.9248H246.231L250.44 19.4805H244.904L243.048 21.436Z" fill="black"/>
<path fill-rule="evenodd" clip-rule="evenodd" d="M21.4301 10.8156C21.6064 10.6098 21.6893 10.3478 21.6271 10.1045C20.58 10.4133 19.4499 10.3103 18.2265 9.80509C18.1747 9.78638 18.1643 9.82381 18.1954 9.90802C18.3924 10.6004 18.9004 10.9747 19.7298 11.0495C20.0098 11.0776 20.2793 10.9092 20.5281 10.5536C20.6733 10.3571 20.7977 10.3384 20.9014 10.4881C21.1606 10.8904 21.3161 10.9934 21.4301 10.8156ZM31.8495 13.1828C31.9946 13.1828 32.1087 13.2857 32.1087 13.4167C32.1087 13.5477 31.9946 13.6506 31.8495 13.6506C31.7043 13.6506 31.5799 13.5477 31.5799 13.4167C31.5799 13.2857 31.7043 13.1828 31.8495 13.1828ZM16.3708 7.6531C16.2982 7.40048 16.3811 7.31627 16.6299 7.39112C16.7647 6.78295 17.2002 6.33383 17.9466 6.02507C18.8279 5.73502 19.8128 5.80987 20.8806 6.24027C21.6064 6.62389 22.0314 7.13849 22.1558 7.78409C22.2388 8.31741 22.2699 8.84137 22.2492 9.33727C22.3217 9.46826 22.2906 9.62732 22.1662 9.81445C22.0522 9.92673 21.907 10.0109 21.71 10.0764C21.7411 10.3758 21.7204 10.7033 21.6582 11.0402C21.6167 11.1805 21.6582 11.246 21.793 11.2273C21.8967 11.2366 21.9589 11.1992 21.9796 11.1244C22.0625 10.8811 22.218 10.7688 22.4358 10.7688C22.7779 10.7127 23.0163 10.7969 23.1511 10.9934C23.1822 11.115 23.2444 11.1899 23.3481 11.1992C23.8769 11.3302 24.4471 11.4518 25.0691 11.5828C25.1624 11.6109 25.235 11.5922 25.2765 11.536C25.5046 11.4144 25.7223 11.3957 25.94 11.4706C26.0748 11.5173 26.1888 11.5548 26.2821 11.5922C26.3236 11.7045 26.3132 11.9103 26.251 12.2097C26.251 12.4156 26.2406 12.6027 26.2095 12.7711C26.3754 12.7992 26.6657 12.8085 27.0908 12.8085C27.1841 12.8366 27.267 12.9021 27.3292 13.0144C27.464 13.1454 27.6403 13.2951 27.858 13.4354C29.4442 13.6132 30.1492 13.7348 29.973 13.8284C30.3877 13.8845 30.8957 13.9407 31.497 13.9968C31.5074 13.9407 31.5074 13.8845 31.5074 13.8471C31.2171 13.6787 31.2171 13.3231 31.4348 13.0892C31.7769 12.7805 32.3575 12.9957 32.3264 13.4261C32.316 13.7068 32.1916 13.8752 31.9428 13.9313C31.9324 13.9874 31.9324 14.0155 31.9324 14.0249C32.1916 14.0436 32.3679 14.1184 32.3471 14.2775C32.4923 14.3056 32.4612 14.5301 32.3264 14.6611C32.202 14.7921 32.1294 14.9699 32.1294 15.1851C32.119 15.2786 32.119 15.3535 32.119 15.4003C32.6063 15.4751 33.0417 15.5781 33.4461 15.6435C33.4565 15.6155 33.4772 15.5593 33.4876 15.5313C33.923 15.6248 34.3688 15.709 34.8042 15.7933C34.825 16.1488 34.7524 16.3827 34.5761 16.5043C34.1407 16.4482 33.7364 16.364 33.3528 16.2517C33.3528 16.1956 33.3631 16.1394 33.3528 16.0739C32.7929 15.9523 32.3575 15.8494 32.0361 15.7839C31.8598 16.0552 31.4659 16.1114 30.8335 15.9617C29.9004 15.812 29.1539 15.6716 28.6044 15.5406C28.4282 15.4751 28.3038 15.5126 28.2312 15.6435C28.1586 15.8494 27.9513 15.9617 27.6092 15.9804C26.9767 16.0272 26.4376 16.0646 26.0022 16.0927C25.7948 16.1675 25.6808 16.2891 25.6601 16.4482C25.6912 17.019 25.7223 17.6739 25.743 18.4224C25.3801 18.516 24.9965 18.6189 24.5922 18.7218C24.3745 18.778 24.219 18.7125 24.1464 18.5347C24.1153 18.2447 24.0946 17.8517 24.0946 17.3464C23.7317 17.5803 23.4103 17.8143 23.1511 18.0388C23.0163 18.1417 22.8608 18.1979 22.6742 18.1979C22.6535 18.6376 22.4669 19.04 22.1351 19.4049C22.1351 19.6107 22.1351 19.8446 22.1351 20.1066C22.3632 20.5557 22.3632 20.8083 22.1455 20.8738C22.1558 21.351 22.1662 21.7814 22.1766 22.1557C23.2341 22.951 23.0371 23.5124 23.5347 24.0925C23.9702 24.71 24.4678 25.234 25.0276 25.6644C26.2199 26.731 26.9353 27.5731 27.1634 28.2C27.4536 28.9204 27.547 29.6128 27.4329 30.2584C27.3914 30.7169 27.3707 31.1847 27.3811 31.6712C27.6506 32.663 27.7232 33.5145 27.6092 34.2256C27.547 34.3378 27.4329 34.4314 27.2878 34.5062C26.842 34.8805 26.6865 35.4419 26.8316 36.1904C26.9353 36.9764 27.4122 37.6032 28.2623 38.0711C29.2991 38.6605 29.7656 39.1096 29.6412 39.4278C29.6205 39.5588 29.693 39.6897 29.8589 39.8207C30.0766 40.2511 29.9833 40.5693 29.579 40.7751C28.8947 41.0839 28.1483 41.0839 27.3603 40.747C26.8316 40.5505 26.4273 40.2511 26.137 39.8395C26.0644 39.7646 26.0333 39.6523 26.0437 39.512C26.0644 39.4184 25.9504 39.2874 25.6912 39.119C25.3594 38.857 25.1832 38.7822 25.1417 38.9132C25.1002 39.0161 24.9551 38.9787 24.6959 38.7915C24.136 38.436 23.8665 38.1646 23.9183 37.9775C23.9183 37.7717 23.9494 37.5658 24.0324 37.3506C24.1153 36.836 24.1464 36.284 24.1257 35.6758C24.1153 35.4419 23.9702 35.2454 23.7006 35.0957C23.5658 35.0209 23.4933 34.8244 23.4725 34.4969C23.4622 34.2817 23.514 34.0946 23.6384 33.9261C23.6695 33.87 23.6591 33.8139 23.5969 33.7484C23.3481 33.5425 23.1926 33.2525 23.1408 32.8782C23.0889 32.6069 23.2237 32.1952 23.5555 31.6151C23.6384 31.5122 23.6177 31.4186 23.4933 31.3344C22.8919 31.0911 22.5498 30.8011 22.4669 30.4549C22.4254 29.9777 22.4254 29.6596 22.498 29.4912C21.5234 29.1637 20.7977 28.6304 20.3208 27.9099C20.269 27.8164 20.186 27.7415 20.0823 27.6947C19.2322 27.3672 18.6101 26.9368 18.2162 26.4035C18.0296 26.2351 17.7911 26.076 17.5008 25.9357C17.2624 25.8421 17.0239 25.8702 16.8062 26.0386C16.5988 26.4035 16.1945 26.7684 15.6139 27.1427C15.3029 27.3766 14.9919 27.6105 14.7016 27.8351C14.4009 28.0316 14.0795 28.1906 13.7581 28.3122C13.5197 28.4058 13.3123 28.5742 13.1361 28.8081C12.7214 29.2011 12.2341 29.4631 11.6846 29.5941C11.6017 30.1929 11.3114 30.5578 10.8138 30.6982C10.0984 30.9601 9.51782 31.2595 9.04092 31.6057C8.83357 31.7554 8.67805 31.98 8.57438 32.2607C8.44997 32.6162 8.12857 32.9156 7.59983 33.1589C7.45468 33.2151 7.31991 33.2338 7.17476 33.2244C7.16439 33.7484 7.15403 34.1881 7.15403 34.5624C7.14366 34.8899 6.94668 35.1238 6.55271 35.2454C6.28315 35.2548 6.03433 35.339 5.82698 35.4887C5.6922 35.5729 5.63 35.7507 5.63 36.0033C5.64037 36.284 5.47449 36.4711 5.14272 36.5834C4.70729 36.7892 4.0023 36.9015 3.00702 36.9015C2.33312 36.8641 1.991 36.7331 1.95989 36.5273C1.91842 36.3308 1.97026 36.1062 2.13614 35.8536C2.10504 35.5448 2.26055 35.2828 2.59231 35.0676C2.75819 34.9928 2.99665 34.8524 3.31804 34.656C3.85715 34.2162 4.32369 33.7764 4.72802 33.3367C4.90427 33.1402 4.95611 32.8969 4.88354 32.6069C4.8006 32.2513 4.8628 31.9239 5.07015 31.6244C5.36044 31.3812 5.64037 31.1473 5.89955 30.9321C6.03433 30.7917 6.08617 30.6327 6.0758 30.4736C5.97213 29.9683 6.0447 29.6128 6.27278 29.4163C6.77043 29.1356 7.27844 28.883 7.81755 28.6584C7.95233 28.5929 8.01453 28.49 8.00416 28.331C7.98343 28.069 8.07674 27.8164 8.27372 27.5918C8.69879 27.0959 9.2379 26.4971 9.89105 25.7953C9.98436 25.7205 10.0051 25.6456 9.95326 25.5708C9.79774 25.4492 9.73554 25.2807 9.76664 25.0655C9.78738 24.9533 9.94289 24.7474 10.2228 24.4667C10.5857 24.0083 10.9796 23.4936 11.4047 22.8948C11.5291 22.7545 11.5499 22.6235 11.4462 22.4925C11.2699 22.3147 11.2699 22.0902 11.4358 21.8376C11.6121 21.6691 11.7779 21.5475 11.9024 21.4633C12.1097 21.3697 12.2652 21.4165 12.3689 21.6036C12.4622 21.7346 12.5451 21.744 12.6385 21.6411C12.9806 21.4633 13.2812 21.2762 13.5404 21.0703C13.5508 20.8551 13.6959 20.7335 13.9759 20.6867C14.0588 20.6586 14.0795 20.5651 14.0484 20.4154C14.0588 19.9288 14.1003 19.4236 14.1936 18.8996C13.8826 18.806 13.6959 18.4692 13.6441 17.8798C13.5819 17.4026 13.5404 16.8786 13.5197 16.3079C13.4575 16.1956 13.3745 16.1582 13.2812 16.1862C11.7157 16.5043 10.8241 16.5979 10.6271 16.495C10.4716 16.4201 10.3369 16.4201 10.1917 16.4856C9.75627 16.5886 9.42451 16.5698 9.17569 16.4482C8.64695 15.9617 8.4396 15.4658 8.56401 14.9605C8.56401 14.7921 8.65732 14.6237 8.8543 14.474C9.09275 14.3149 9.35194 14.0155 9.63186 13.5851C9.74591 13.2951 9.92216 13.0986 10.171 13.005C10.5235 12.8366 10.7827 12.7056 10.9382 12.6027C11.1559 12.4062 11.4877 12.2004 11.9231 11.9945C12.1719 11.9477 12.3378 11.8542 12.4207 11.7045C12.6799 11.4518 12.9806 11.3115 13.3227 11.3021C13.6856 11.2928 13.9966 11.1805 14.2869 10.9747C14.7016 10.6378 15.334 10.5068 16.2049 10.5817C16.1945 10.301 16.3293 10.1045 16.6196 9.99222C16.6299 9.94544 16.6092 9.8893 16.5263 9.84252C16.236 9.77702 16.0286 9.58989 15.9042 9.29049C15.8835 9.17821 15.8939 9.0285 15.9457 8.85073C15.6658 8.89752 15.5621 8.83202 15.6243 8.65425C15.7072 8.57939 15.8213 8.5139 15.9664 8.46712C16.0494 8.42033 16.0183 8.38291 15.8835 8.33613C15.645 8.21449 15.5725 8.0835 15.6554 7.95251C15.7176 7.72795 15.8524 7.62503 16.039 7.64374C16.1945 7.77474 16.3086 7.78409 16.3708 7.6531Z" fill="black"/>
<path d="M0.798795 32.9232V31.6882H0.311523V31.4355H1.61783V31.6882H1.13056V32.9232H0.798795Z" fill="black"/>
<path d="M1.82324 32.9232V31.4355H2.32088L2.62154 32.446L2.91183 31.4355H3.40947V32.9232H3.09845V31.7537L2.77705 32.9232H2.45566L2.13427 31.7537V32.9232H1.82324Z" fill="black"/>
<path d="M68.0628 111.821L71.7329 91.2273L74.1278 77.1177L76.3569 91.2273L79.7159 111.821H68.0628ZM33.9226 81.6743C33.9226 89.7677 32.9998 92.2191 24.1874 92.2191H17.9462V65.0665H24.0319C32.9998 65.0665 33.9226 68.3881 33.9226 75.7517V81.6743ZM101.229 132.012L84.3399 50.9102H63.4389L47.5248 128.008L40.6096 103.344C47.7528 100.453 51.7132 94.2495 51.7132 81.3843V76.0417C51.7132 54.8118 41.6775 50.9102 23.7313 50.9102H0V141.341H17.9462V105.655H22.8189L32.8547 141.341H63.1175L66.4662 124.92H81.1467L84.4954 141.341H118.667V50.9102H101.229V132.012Z" fill="black"/>
<path d="M158.072 95.55L144.315 50.9102H122.211V141.341H139.525V87.1666L157.606 141.341H175.542V50.9102H158.072V95.55Z" fill="black"/>
<path d="M535.515 88.1769C525.261 80.4485 521.477 77.6322 521.477 72.2802C521.477 67.9763 523.364 64.7015 530.144 64.7015C536.468 64.7015 538.355 67.3774 538.832 74.9562L557.452 73.3188C555.555 56.973 549.563 49.2539 529.678 49.2539C513.266 49.2539 502.847 56.2339 502.847 72.8791C502.847 85.501 511.213 92.3406 523.364 101.257C535.038 110.174 539.776 113.29 539.776 119.68C539.776 124.733 538.2 128.298 530.621 128.298C522.731 128.298 520.845 126.51 520.368 113.439L501.437 115.666C502.059 132.312 507.108 143.605 529.989 143.605C550.983 143.605 558.551 134.688 558.551 119.68C558.551 105.122 548.93 98.4317 535.515 88.1769Z" fill="black"/>
<path d="M561.723 142.997H580.602V49.2539H561.723V142.997Z" fill="black"/>
<path d="M479.375 192.248H488.82V0H479.375V192.248Z" fill="black"/>
<path d="M584.667 142.997H632.575V127.568H603.899V99.2644H627.682V84.5934H603.899V64.8231H632.575V49.2539H584.667V142.997Z" fill="black"/>
<path d="M745.001 64.8192V49.25H697.093V142.993H745.001V127.564H716.325V99.2605H740.108V84.5895H716.325V64.8192H745.001Z" fill="black"/>
<path d="M663.656 64.6266C671.919 64.6266 673.059 66.8441 673.536 77.9316L692.986 76.0135C691.68 60.4911 687.47 49.2539 664.143 49.2539C644.538 49.2539 634.979 57.235 634.979 76.3129V115.498C634.979 134.866 644.051 142.997 660.743 142.997C667.876 142.997 673.059 141.369 676.947 138.113L678.077 142.548H692.654V90.6471H664.952V104.991H675.164V107.657C674.998 124.368 674.345 128.064 664.952 128.064C656.046 128.064 654.263 124.368 654.263 116.228V76.1632C654.263 68.7716 656.202 64.6266 663.656 64.6266Z" fill="black"/>
<path d="M258.275 115.748C258.275 124.449 254.968 127.49 248.177 127.49C241.075 127.49 238.39 124.449 238.39 115.607V76.4877C238.39 68.6657 240.92 65.1851 248.177 65.1851C255.59 65.1851 258.275 68.5253 258.275 76.3474V115.748ZM213.29 117.207C213.29 124.72 212.191 127.902 202.964 127.902H196.235V100.169H203.119C212.191 100.169 213.29 102.48 213.29 110.714V117.207ZM196.235 64.343H202.342C211.569 64.343 212.512 67.2248 212.512 74.738V76.0386C212.512 84.132 211.569 86.7331 202.497 86.7331H196.235V64.343ZM356.6 100.899C352.536 97.9515 348.939 95.2194 345.901 92.4405L353.086 50.907H335.731L329.997 87.3974L327.675 104.557L325.042 87.3974L319.153 50.907H301.808L295.297 87.5377L292.508 104.557L290.497 87.5377L285.23 50.907H267.564L268.217 55.1642C263.78 52.0111 257.362 50.1211 248.177 50.1211C237.374 50.1211 230.428 52.8625 226.063 57.2601C221.273 52.1327 213.103 50.907 202.031 50.907H177.781V141.338H202.653C213.518 141.338 221.584 140.271 226.446 135.19C230.915 139.56 237.861 142.124 248.177 142.124C270.27 142.124 277.05 130.961 277.05 115.027V112.454L281.508 141.338H300.253L309.708 87.8278L318.842 141.338H350.971C345.186 139.71 341.391 136.753 338.913 132.795L342.117 114.297L353.604 112.959C354.071 125.909 355.968 127.668 363.858 127.668C371.436 127.668 373.012 124.14 373.012 119.144C373.012 112.819 368.285 109.722 356.6 100.899Z" fill="black"/>
<path d="M390.691 73.2535L372.071 74.8721C371.594 67.3682 369.697 64.7203 363.383 64.7203C356.602 64.7203 354.705 67.9577 354.705 72.2243C354.705 77.52 358.5 80.3083 368.753 87.9619C382.169 98.1043 391.79 104.729 391.79 119.147C391.79 130.45 387.384 138.253 376.031 141.341H393.905V50.9102H375.492C385.559 53.8387 389.27 61.1649 390.691 73.2535Z" fill="black"/>
<path d="M451.775 50.9102H434.212L443.366 73.2909L451.775 50.9102Z" fill="black"/>
<path d="M431.61 141.34H452.511L441.615 115.076L431.61 141.34Z" fill="black"/>
<path d="M415.011 50.9102H412.792V141.341H413.393L432.646 93.5851L415.011 50.9102Z" fill="black"/>
</svg>
