<svg width="113" height="129" viewBox="0 0 113 129" fill="black" xmlns="http://www.w3.org/2000/svg">
<path d="M99.3751 0.967773H13.6151C6.38312 0.967773 0.495117 6.85577 0.495117 14.1518V100.68C0.495117 107.976 6.38312 113.864 13.6151 113.864H86.1911L82.7991 102.024L90.9911 109.64L98.7351 116.808L112.495 128.968V14.1518C112.495 6.85577 106.607 0.967773 99.3751 0.967773ZM74.6711 84.5518C74.6711 84.5518 72.3671 81.7998 70.4471 79.3678C78.8311 76.9998 82.0311 71.7518 82.0311 71.7518C79.4071 73.4798 76.9111 74.6958 74.6711 75.5278C71.4711 76.8718 68.3991 77.7678 65.3911 78.2798C59.2471 79.4318 53.6151 79.1118 48.8151 78.2158C45.1671 77.5118 42.0311 76.4878 39.4071 75.4638C37.9351 74.8878 36.3351 74.1838 34.7351 73.2878C34.5431 73.1598 34.3511 73.0958 34.1591 72.9678C34.0311 72.9038 33.9671 72.8398 33.9031 72.7758C32.7511 72.1358 32.1111 71.6878 32.1111 71.6878C32.1111 71.6878 35.1831 76.8078 43.3111 79.2398C41.3911 81.6718 39.0231 84.5518 39.0231 84.5518C24.8791 84.1038 19.5031 74.8238 19.5031 74.8238C19.5031 54.2158 28.7191 37.5118 28.7191 37.5118C37.9351 30.5998 46.7031 30.7918 46.7031 30.7918L47.3431 31.5598C35.8231 34.8878 30.5111 39.9438 30.5111 39.9438C30.5111 39.9438 31.9191 39.1758 34.2871 38.0878C41.1351 35.0798 46.5751 34.2478 48.8151 34.0558C49.1991 33.9918 49.5191 33.9278 49.9031 33.9278C53.8071 33.4158 58.2231 33.2878 62.8311 33.7998C68.9111 34.5038 75.4391 36.2958 82.0951 39.9438C82.0951 39.9438 77.0391 35.1438 66.1591 31.8158L67.0551 30.7918C67.0551 30.7918 75.8231 30.5998 85.0391 37.5118C85.0391 37.5118 94.2551 54.2158 94.2551 74.8238C94.2551 74.8238 88.8151 84.1038 74.6711 84.5518ZM44.9111 54.6638C41.2631 54.6638 38.3831 57.8638 38.3831 61.7678C38.3831 65.6718 41.3271 68.8718 44.9111 68.8718C48.5591 68.8718 51.4391 65.6718 51.4391 61.7678C51.5031 57.8638 48.5591 54.6638 44.9111 54.6638ZM68.2711 54.6638C64.6231 54.6638 61.7431 57.8638 61.7431 61.7678C61.7431 65.6718 64.6871 68.8718 68.2711 68.8718C71.9191 68.8718 74.7991 65.6718 74.7991 61.7678C74.7991 57.8638 71.9191 54.6638 68.2711 54.6638Z"/>
</svg>
