<svg width="33" height="37" viewBox="0 0 33 37" fill="none" xmlns="http://www.w3.org/2000/svg">
<path d="M2.65685 7.73145L28.0908 7.73145V28.1124H2.65625L2.65685 7.73145Z" fill="white"/>
<path d="M28.4663 0.286133H3.96342C1.89713 0.286133 0.214844 1.96842 0.214844 4.05299V28.7753C0.214844 30.8599 1.89713 32.5421 3.96342 32.5421H24.6994L23.7303 29.1593L26.0708 31.3353L28.2834 33.3833L32.2148 36.8576V4.05299C32.2148 1.96842 30.5326 0.286133 28.4663 0.286133ZM21.408 24.1673C21.408 24.1673 20.7497 23.381 20.2011 22.6861C22.5966 22.0096 23.5108 20.5101 23.5108 20.5101C22.7611 21.0039 22.048 21.3513 21.408 21.589C20.4937 21.973 19.616 22.229 18.7566 22.3753C17.0011 22.7044 15.392 22.613 14.0206 22.357C12.9783 22.1559 12.0823 21.8633 11.3326 21.5707C10.912 21.4061 10.4548 21.205 9.9977 20.949C9.94284 20.9124 9.88799 20.8941 9.83313 20.8576C9.79656 20.8393 9.77827 20.821 9.75999 20.8027C9.43084 20.6198 9.24799 20.4919 9.24799 20.4919C9.24799 20.4919 10.1257 21.9547 12.448 22.6496C11.8994 23.3444 11.2228 24.1673 11.2228 24.1673C7.1817 24.0393 5.6457 21.3879 5.6457 21.3879C5.6457 15.4998 8.27884 10.7273 8.27884 10.7273C10.912 8.75242 13.4171 8.80728 13.4171 8.80728L13.6 9.0267C10.3086 9.97756 8.79084 11.4221 8.79084 11.4221C8.79084 11.4221 9.19313 11.2027 9.8697 10.8918C11.8263 10.0324 13.3806 9.79471 14.0206 9.73985C14.1303 9.72156 14.2217 9.70328 14.3314 9.70328C15.4468 9.55699 16.7086 9.52042 18.0251 9.66671C19.7623 9.86785 21.6274 10.3798 23.5291 11.4221C23.5291 11.4221 22.0846 10.0507 18.976 9.09985L19.232 8.80728C19.232 8.80728 21.7371 8.75242 24.3703 10.7273C24.3703 10.7273 27.0034 15.4998 27.0034 21.3879C27.0034 21.3879 25.4491 24.0393 21.408 24.1673ZM12.9051 15.6278C11.8628 15.6278 11.04 16.5421 11.04 17.6576C11.04 18.773 11.8811 19.6873 12.9051 19.6873C13.9474 19.6873 14.7703 18.773 14.7703 17.6576C14.7886 16.5421 13.9474 15.6278 12.9051 15.6278ZM19.5794 15.6278C18.5371 15.6278 17.7143 16.5421 17.7143 17.6576C17.7143 18.773 18.5554 19.6873 19.5794 19.6873C20.6217 19.6873 21.4446 18.773 21.4446 17.6576C21.4446 16.5421 20.6217 15.6278 19.5794 15.6278Z" fill="#5865F2"/>
</svg>
