<svg width="129" height="72" viewBox="0 0 129 72" fill="black" xmlns="http://www.w3.org/2000/svg">
<path fill-rule="evenodd" clip-rule="evenodd" d="M70.0443 11.2741L72.6078 0.450684H25.8205C5.40973 11.0808 -5.72014 56.1174 4.13507 65.5069C13.061 74.0109 39.8522 71.318 55.1595 69.3337L64.514 38.719H44.9546L39.0167 53.6012H29.6622C21.1581 53.6012 25.9469 34.8922 30.9378 23.8369C33.9993 17.0336 35.1899 16.6084 39.0167 16.6084H63.6007C59.8569 20.3748 56.2073 25.3745 53.2336 31.9167H56.21C56.7654 31.52 57.1905 30.99 57.6715 30.3904C59.7684 27.7764 62.9277 23.8378 82.5726 23.8378L69.8165 71.4607H89.8011L103.833 23.8378H122.967L128.495 6.40449H81.7222C79.0485 6.7228 74.7449 8.12766 70.0443 11.2741Z"/>
</svg>
