<svg width="127" height="129" viewBox="0 0 127 129" fill="black" xmlns="http://www.w3.org/2000/svg">
<path d="M61.4173 1.00188C74.8311 0.548246 88.3822 4.63042 99.3416 12.588C112.574 22.0064 121.963 36.8477 124.945 53.0696C127.368 64.8094 125.987 77.1756 121.801 88.3215C116.318 102.909 105.411 115.236 91.8009 122.292C83.0039 126.809 73.1517 129.49 63.2604 128.883C55.0166 129.37 46.7925 127.469 39.2128 124.22C23.8971 117.684 11.3819 104.61 5.32655 88.7884C0.579399 76.6415 -0.489346 62.9813 2.59761 50.2679C6.1079 34.7798 15.5882 20.8528 28.4552 11.9809C38.1318 5.21073 49.7159 1.42211 61.4173 1.00188ZM49.4946 16.0767C36.3606 19.9718 24.9842 29.6641 18.8961 42.2104C14.1618 51.689 12.6707 62.7211 14.2536 73.2141C14.5138 74.481 14.3966 75.9212 15.198 77.0093C20.1852 65.6034 26.1636 54.1435 35.7609 46.0857C44.9627 38.6485 56.071 32.9655 68.0004 32.7452C65.5844 29.8038 63.1555 26.8755 60.6752 23.9869C69.2308 26.455 77.7613 29.0232 86.2332 31.7845C80.4179 37.7544 74.6169 43.7444 68.5598 49.4544C68.7558 45.7789 69.0292 42.0969 69.1203 38.4148C64.946 39.162 61.0591 41.2167 57.829 43.9913C50.7835 50.0816 46.6354 58.9393 44.0567 67.8444C41.3999 76.9963 40.2935 86.634 40.7557 96.1657C47.3584 95.3925 53.7593 93.0708 59.5281 89.7227C66.5678 85.6269 72.5258 79.1365 74.9223 71.0924C71.8878 71.5924 68.8792 72.2738 65.897 73.0264C70.7157 66.7569 75.6444 60.5736 80.4508 54.2902C84.5855 61.2941 88.8113 68.2503 92.4316 75.5551C89.2155 74.281 86.1872 72.5539 82.9054 71.4658C86.2716 85.2204 85.5295 100.081 80.1704 113.201C94.5743 108.073 106.301 95.7392 110.906 80.8445C115.008 67.8174 113.849 53.043 107.423 41.0037C101.985 30.4983 92.7975 22.1267 82.0332 17.7111C71.771 13.4687 60.1152 12.9816 49.4946 16.0767V16.0767Z"/>
</svg>
