<svg width="33" height="33" viewBox="0 0 33 33" fill="none" xmlns="http://www.w3.org/2000/svg">
<circle cx="16.0077" cy="16.6331" r="15.2694" fill="#E11931"/>
<path d="M15.4772 0.294845C18.9033 0.178977 22.3646 1.22164 25.1638 3.25417C28.5436 5.65981 30.9418 9.45057 31.7034 13.5939C32.3222 16.5925 31.9696 19.7511 30.9002 22.598C29.4998 26.3239 26.7141 29.4724 23.2378 31.2748C20.9908 32.4283 18.4744 33.1131 15.948 32.958C13.8424 33.0825 11.7418 32.597 9.80577 31.7671C5.89385 30.0977 2.69723 26.7583 1.15056 22.7172C-0.0619528 19.6147 -0.334931 16.1256 0.453537 12.8783C1.35013 8.92239 3.77158 5.36515 7.05805 3.0991C9.52965 1.36986 12.4884 0.402178 15.4772 0.294845ZM12.4319 4.14524C9.07726 5.14012 6.17151 7.61573 4.61648 10.8203C3.40726 13.2413 3.02639 16.0591 3.43071 18.7392C3.49715 19.0628 3.46722 19.4307 3.67192 19.7086C4.94575 16.7953 6.47273 13.8682 8.92407 11.8101C11.2744 9.91051 14.1117 8.45896 17.1587 8.40269C16.5416 7.65141 15.9212 6.90345 15.2877 6.16567C17.4729 6.79607 19.6518 7.45203 21.8157 8.15731C20.3303 9.68215 18.8487 11.2121 17.3016 12.6706C17.3516 11.7318 17.4214 10.7913 17.4447 9.85082C16.3785 10.0417 15.3857 10.5665 14.5607 11.2752C12.7611 12.8307 11.7016 15.0932 11.043 17.3677C10.3644 19.7053 10.0818 22.1669 10.1998 24.6015C11.8863 24.404 13.5212 23.811 14.9947 22.9558C16.7927 21.9097 18.3145 20.2519 18.9267 18.1973C18.1516 18.325 17.3831 18.499 16.6214 18.6913C17.8522 17.0899 19.1111 15.5106 20.3387 13.9057C21.3948 15.6946 22.4742 17.4714 23.3988 19.3372C22.5774 19.0117 21.8039 18.5706 20.9657 18.2927C21.8255 21.8059 21.6359 25.6016 20.2671 28.9527C23.9462 27.6428 26.9415 24.4926 28.1175 20.6882C29.1653 17.3608 28.8693 13.5871 27.2278 10.5121C25.8389 7.8288 23.4923 5.69053 20.7429 4.56271C18.1217 3.47911 15.1446 3.35471 12.4319 4.14524V4.14524Z" fill="white"/>
</svg>
