<svg width="393" height="164" viewBox="0 0 393 164" fill="black" xmlns="http://www.w3.org/2000/svg">
<path d="M196.174 0.925034C198.766 0.0269155 201.597 0.776674 203.972 1.94821C205.632 3.01685 207.292 4.09687 209.151 4.79604C209.293 5.0632 209.588 5.59184 209.731 5.85332C209.657 6.02953 209.515 6.39332 209.441 6.56954C210.765 9.58221 211.612 13.1519 210.327 16.3175C209.452 17.3862 207.929 17.5516 206.695 17.9654C206.689 19.4945 206.934 21.0071 207.065 22.5248C209.702 22.9511 211.935 21.1151 214.544 21.297C214.896 19.8361 215.175 18.3514 215.642 16.9195C216.182 17.8688 216.204 18.9607 216.211 20.0294C216.893 20.2226 217.586 20.3989 218.284 20.5688C218.291 20.8309 218.296 21.3538 218.296 21.6153C229.733 21.6835 241.164 21.5636 252.601 21.6778C252.572 22.0689 252.517 22.8539 252.494 23.2467C252.79 23.2467 253.392 23.2524 253.692 23.2524C253.681 21.1725 253.692 19.0858 253.687 17.0059C253.977 16.994 254.545 16.9769 254.829 16.9712C254.836 18.6083 254.841 20.2454 254.858 21.883C255.108 22.19 255.608 22.8033 255.859 23.1103C256.047 22.888 256.421 22.4515 256.608 22.2292C257.478 23.0426 256.983 24.1567 256.945 25.156C260.145 25.1214 263.378 25.3374 266.568 25.0759C266.807 24.8997 267.285 24.5529 267.523 24.3773C267.962 24.5473 268.404 24.7183 268.842 24.8946C270.28 24.8593 271.724 24.8548 273.168 24.8491C273.138 25.5937 273.116 26.3378 273.087 27.083C271.228 27.054 269.364 27.0148 267.534 27.3326C266.351 26.3156 264.765 26.6385 263.339 26.5998C261.144 26.7022 258.881 26.3156 256.756 27.0142C255.493 27.3667 254.107 27.282 252.993 26.5652C252.725 27.2302 253.135 28.7195 252.014 28.6621C247.603 28.7195 243.198 28.6229 238.793 28.6911C238.19 29.0094 237.582 29.3107 236.98 29.6057C236.344 31.5043 234.519 32.7713 232.966 33.9309C232.773 36.8469 233.927 39.5697 234.376 42.3999C233.506 42.6494 232.631 42.9064 231.773 43.1906C230.539 46.101 231.295 50.0737 228.442 52.1041C226.253 53.3768 224.805 56.1451 221.853 55.708C223.354 56.9585 221.444 56.5663 221.643 55.5659C216.306 55.0941 211.809 51.962 207.171 49.5752C206.955 50.882 206.614 52.1672 206.261 53.4462C208.024 53.7816 209.479 55.0776 209.791 56.8852C210.354 60.825 209.229 64.7363 209.246 68.6863C209.371 71.0055 208.376 73.1309 207.137 75.0238C206.051 76.2516 204.34 74.9891 203.038 74.8078C202.742 75.3819 202.453 75.9566 202.169 76.5358C202.538 78.0814 202.697 79.69 203.215 81.202C206.119 84.4137 208.762 87.893 210.792 91.7299C212.881 96.0751 214.742 100.526 216.369 105.065C216.527 105.946 217.357 106.263 218.086 106.582C218.183 107.492 218.279 108.4 218.37 109.322C218.654 109.737 218.944 110.151 219.24 110.572C219.416 116.177 218.728 121.758 217.857 127.289C217.319 129.785 218.778 132.223 218.187 134.736C218.255 136.022 217.37 136.993 216.954 138.13C216.874 140.785 216.743 143.473 217.034 146.123C217.238 148.067 218.882 149.317 219.996 150.767C221.212 152.058 222.23 153.791 224.071 154.251C225.805 154.768 227.459 155.518 228.987 156.502C229.453 157.656 229.368 158.879 229.146 160.077C225.815 160.691 222.416 160.385 219.051 160.437C216.458 160.572 214.146 159.18 211.626 158.889C209.188 158.828 206.215 160.038 204.34 157.855C205.135 154.827 205.198 151.574 206.652 148.748C207.119 145.549 206.233 142.302 206.419 139.074C206.142 138.841 205.584 138.375 205.305 138.14C205.505 136.032 204.465 134.156 204.117 132.138C203.891 129.192 203.623 126.249 203.282 123.316C203.015 121.889 203.753 120.582 204.76 119.633C204.851 117.985 205.073 116.353 205.231 114.716C204.987 113.653 204.14 112.863 203.594 111.953C201.77 112.722 199.308 112.358 198.223 110.572C195.648 106.741 193.078 102.91 190.475 99.1007C189.452 99.0331 188.372 99.1405 187.417 98.7313C186.315 97.6006 185.74 96.0943 185.036 94.7187C184.03 95.8499 184.103 97.583 182.91 98.6125C180.387 101.035 179.716 104.593 178.397 107.696C177.386 109.708 177.955 112.135 176.828 114.096C176.226 115.153 174.714 115.363 174.316 116.57C173.793 117.87 173.179 119.218 171.957 120.009C170.632 120.878 170.28 122.527 169.69 123.891C169.15 125.147 169.951 126.465 169.764 127.756C168.922 131.855 166.313 135.282 165.216 139.296C164.716 141.104 163.999 143.139 161.896 143.525C159.503 147.799 158.185 153.029 159.538 157.842C160.368 159.354 160.322 161.054 160.066 162.719C156.264 163.015 152.364 163.527 148.63 162.464C147.755 160.73 147.88 158.689 148.062 156.815C149.215 151.886 150.745 147.043 151.682 142.064C150.511 141.024 150.784 139.432 150.807 138.039C150.767 135.442 152.535 133.361 153.762 131.229C154.223 129.041 154.007 126.689 155.138 124.681C156.469 122.169 157.594 119.452 159.646 117.422C160.038 115.632 161.358 114.279 161.891 112.555C162.459 111.032 161.465 109.486 161.665 107.929C162.153 103.204 163.012 98.5266 163.757 93.8371C162.347 92.6604 162.802 90.7909 162.353 89.2044C162.574 88.5791 162.853 87.9828 163.188 87.4025C162.836 87.0784 162.49 86.7488 162.137 86.4253C162.478 84.7581 162.381 81.7739 164.939 82.3156C165.098 76.7961 163.182 71.4529 163.825 65.9272C164.166 66.3245 164.501 66.7287 164.842 67.1323L164.66 65.2621C165.729 64.6937 166.866 64.256 168.06 64.0343C166.116 63.7791 164.223 63.2846 162.317 62.8406C161.857 61.6293 162.114 60.3395 162.283 59.1004C163.022 54.9167 163.295 50.6762 163.448 46.4358C165.603 45.6866 167.979 46.3226 170.082 45.3216C169.429 40.0182 169.265 34.4823 171.151 29.3942C172.668 25.0622 175.568 20.8843 180.092 19.3615C182.229 18.8505 184.918 18.2758 186.429 20.3505C186.844 19.9697 187.259 19.5775 187.674 19.1966C184.224 12.3448 188.345 2.33474 196.174 0.925034V0.925034ZM223.782 30.6425C222.872 31.1996 221.98 31.8368 222.936 32.8486C222.47 33.1266 222.002 33.3943 221.531 33.6495C220.792 34.2179 219.132 34.5414 219.325 35.6907C220.155 37.0238 220.87 38.4251 221.463 39.8795C223.276 38.3908 224.719 36.3888 225.697 34.2697C225.902 34.0593 226.317 33.6387 226.521 33.4335C226.43 32.4615 226.214 31.5116 225.834 30.6141C225.151 30.626 224.464 30.6368 223.782 30.6425V30.6425Z"/>
<path d="M240.46 81.5282C243.063 78.2433 247.269 76.4238 251.441 76.492C264.134 76.5039 276.833 76.4863 289.526 76.4976C295.717 76.6284 301.753 81.4663 302.469 87.7537C284.899 87.6951 267.333 87.8048 249.77 87.6951C249.753 99.4508 249.73 111.212 249.77 122.973C263.253 122.951 276.735 122.928 290.22 122.984C290.168 118.772 290.236 114.56 290.18 110.349C283.513 110.387 276.844 110.4 270.177 110.349C264.828 110.144 260.849 105.523 259.645 100.6C273.981 100.549 288.311 100.543 302.645 100.606C302.584 107.808 302.681 115.016 302.594 122.218C302.424 128.283 297.206 133.621 291.226 134.23C277.396 134.23 263.56 134.224 249.73 134.224C245.598 134.194 241.943 131.585 239.612 128.329C238.021 126.026 237.662 123.167 237.435 120.455C237.412 110.792 237.447 101.123 237.423 91.4598C237.476 87.9572 238.095 84.2573 240.46 81.5282V81.5282ZM324.32 76.8893C325.748 76.5028 327.236 76.4749 328.709 76.492C340.441 76.5272 352.18 76.4527 363.912 76.5204C370.563 76.8046 376.405 82.5469 376.662 89.2191C376.674 100.003 376.674 110.791 376.662 121.581C376.542 128.191 370.688 134.353 363.976 134.24C351.072 134.183 338.169 134.28 325.264 134.194C318.83 133.478 313.89 127.334 313.845 120.973C313.754 111.138 313.856 101.293 313.793 91.4598C313.742 88.5608 314.265 85.5823 315.8 83.0812C317.601 79.9372 320.83 77.7368 324.32 76.8893V76.8893ZM326.344 87.3836C326.367 99.5139 326.293 111.649 326.378 123.78C338.98 123.814 351.589 123.774 364.19 123.796C364.229 111.655 364.196 99.5128 364.206 87.3649C351.588 87.3603 338.963 87.3382 326.344 87.3836V87.3836ZM0.758334 90.2713C1.02606 83.6945 6.53358 77.5151 13.2354 77.2593C25.7573 77.2474 38.2855 77.2474 50.8085 77.265C57.5728 77.1974 63.2071 83.308 63.7176 89.862C62.8138 89.9365 61.91 89.9922 61.0062 90.0041C46.0963 89.9876 31.1864 90.0098 16.2816 89.9922C16.2753 100.588 16.2196 111.183 16.31 121.779C32.1356 121.755 47.955 121.744 63.7801 121.785C63.331 128.577 57.6121 134.604 50.7182 134.87C39.3723 135.03 28.0265 134.876 16.68 134.945C13.8549 135.041 10.9446 134.688 8.39859 133.398C4.01032 131.153 0.906125 126.577 0.753786 121.609C0.741281 111.161 0.724228 100.718 0.758334 90.2713V90.2713ZM75.7683 85.1213C77.8544 80.5676 82.6292 77.186 87.7115 77.248C100.217 77.2599 112.728 77.248 125.24 77.2537C131.77 77.2934 137.523 83.0113 137.984 89.4641C121.488 89.6971 104.98 89.4976 88.4795 89.5607C88.405 92.8803 88.4397 96.2 88.434 99.5247C100.701 99.5639 112.973 99.5361 125.24 99.5361C128.877 99.6782 132.698 100.844 135.175 103.657C137.96 106.147 139.137 109.939 139.228 113.588C139.29 117.232 139.29 120.893 138.699 124.502C137.346 130.346 131.759 134.7 125.796 134.887C113.871 135 101.939 134.899 90.0137 134.944C87.2005 135.002 84.2901 134.597 81.7942 133.227C77.8379 131.163 74.9958 127.013 74.6041 122.557C91.3955 122.638 108.193 122.609 124.984 122.569C125.024 119.033 125.001 115.498 125.001 111.963C112.575 111.877 100.144 111.951 87.7115 111.927C80.5669 111.985 74.246 105.419 74.4381 98.2969C74.6882 93.9086 73.677 89.1969 75.7683 85.1213V85.1213ZM380.544 78.4309C382.124 78.3911 383.721 78.3286 385.296 78.5673C384.562 78.7549 383.817 78.8515 383.067 78.8629C382.971 80.5744 382.959 82.2854 382.982 83.9952C382.817 83.9952 382.494 83.9952 382.334 84.0009C382.345 82.2445 382.363 80.488 382.34 78.7373C381.896 78.7725 381.015 78.8515 380.578 78.885L380.544 78.4309V78.4309ZM386.182 78.3672C386.518 78.3848 387.199 78.4189 387.542 78.436C388.025 79.9759 388.593 81.4879 389.298 82.9488C389.957 81.4765 390.389 79.9071 391.117 78.4758C391.435 78.4303 392.072 78.3337 392.389 78.2882C392.213 80.38 392.935 82.6935 391.805 84.5978C391.6 82.7447 391.685 80.8797 391.565 79.0209C390.701 80.7552 390.293 82.7043 389.162 84.3079C388.297 82.66 387.928 80.783 386.893 79.2272C386.826 80.8871 386.859 82.5526 386.837 84.2169L386.228 84.1481C386.228 82.2223 386.199 80.2948 386.182 78.3672V78.3672Z"/>
</svg>
