<svg width="240" height="231" viewBox="0 0 240 231" fill="black" xmlns="http://www.w3.org/2000/svg">
<path d="M117.557 149.362L117.561 153.954C117.565 154.909 117.588 155.836 118.348 156.29L130.288 164.141C133.055 166.037 133.377 166.402 133.377 169.982C133.377 178.286 133.377 196.226 133.377 207.151C133.377 212.151 129.306 216.201 124.284 216.201H116.522C111.495 216.201 107.419 212.14 107.419 207.135C107.419 203.305 107.419 174.827 107.419 174.827L117.555 172.73C117.555 182.229 117.565 200.988 117.557 206.888C117.556 207.893 118.374 208.707 119.384 208.707H121.397C122.405 208.707 123.222 207.897 123.222 206.893C123.222 201.023 123.222 182.387 123.222 172.884C123.222 170.287 122.376 169.835 121.028 168.976L109.741 161.381C108.494 160.586 107.419 159.076 107.419 157.239L107.419 148.013C107.419 143.024 111.481 140.026 116.492 140.026C122.338 140.026 117.681 140.027 125.116 140.027C129.678 140.027 133.377 143.706 133.377 148.248V151.917L123.223 153.95L123.222 149.368C123.222 148.356 122.398 147.536 121.382 147.536H119.389C118.376 147.536 117.556 148.354 117.557 149.362ZM113.648 88.3281L113.648 113.642C113.648 118.069 110.043 121.657 105.597 121.656L99.0138 121.655C94.573 121.653 90.9743 118.068 90.9743 113.648V88.2837C90.9743 83.8588 94.5785 80.2721 99.0232 80.274L104.248 80.2759L112.938 85.2546C113.378 86.16 113.645 87.1851 113.648 88.3281ZM104.601 87.8814C104.601 87.3895 104.2 86.9914 103.706 86.9912L100.963 86.9891C100.474 86.9886 100.077 87.3834 100.077 87.8707C100.077 91.9178 100.077 109.852 100.077 114.064C100.077 114.556 100.478 114.952 100.972 114.952H103.704C104.199 114.952 104.601 114.555 104.601 114.062C104.601 109.849 104.601 91.94 104.601 87.8814ZM229.732 140.027L224.303 140.026C218.571 140.034 213.929 143.693 213.929 150.369V157.234C213.929 159.071 215.004 160.581 216.25 161.376L227.538 168.971C228.886 169.831 229.732 170.282 229.732 172.879C229.732 176.958 229.732 180.825 229.732 184.903C229.732 186.499 228.216 186.659 226.527 187.024C224.495 187.429 224.064 186.756 224.064 185.224C224.064 180.982 224.064 172.723 224.064 172.723L213.929 174.822V187.681C213.929 192.629 218.512 196.385 223.357 195.389C225.329 194.984 227.301 194.58 229.273 194.161C234.23 193.133 239.887 190.264 239.887 184.677C239.887 179.707 239.887 174.947 239.887 169.977C239.887 166.398 239.565 166.033 236.798 164.136L224.857 156.285C224.098 155.832 224.075 154.905 224.071 153.95L224.062 149.397C224.059 148.422 224.843 147.535 225.605 147.535L228.197 147.516C229.07 147.528 229.732 148.285 229.732 149.219L229.733 153.946L239.887 151.912V149.074C239.887 144.487 236.223 140.027 229.732 140.027ZM21.2687 196.085L23.6119 174.827L26.076 197.082L39.7935 199.925L46.286 140.027H36.1311L32.5854 172.288L29.0399 140.027H18.1733L14.6267 172.288L11.081 140.027H0.925781L6.67586 193.06L21.2687 196.085ZM113.687 123.957H116.141C117.214 123.957 119.665 125.167 119.665 127.481V134.226C119.665 136.54 117.213 137.751 116.141 137.751H113.687C112.616 137.751 110.163 136.542 110.163 134.226V127.481C110.163 125.164 112.615 123.957 113.687 123.957ZM114.224 127.756L114.225 133.952C114.225 134.21 114.384 134.356 114.611 134.356L115.215 134.355C115.445 134.355 115.605 134.212 115.605 133.952V127.756C115.605 127.494 115.442 127.352 115.215 127.352H114.613C114.386 127.352 114.224 127.496 114.224 127.756ZM168.364 121.658V80.2759C168.364 80.2759 176.446 80.2775 182.948 80.2759C187.386 80.2748 190.984 83.8536 190.984 88.2726V113.649C190.984 118.072 187.382 121.658 182.939 121.658H168.364ZM177.413 114.961V114.961L181.048 114.953C181.539 114.952 181.936 114.559 181.936 114.071C181.936 109.787 181.936 91.2072 181.936 87.8768C181.936 87.3838 181.535 86.9882 181.039 86.9882H177.413V114.961V114.961ZM135.01 126.229V135.425H239.887V126.229H135.01V126.229ZM145.504 80.2759V121.658H163.745V114.023H154.606V80.2759H145.504V80.2759ZM193.5 201.547L183.347 203.667L183.346 140.027H198.918C204.657 140.027 209.309 144.659 209.309 150.372L209.307 164.493C209.306 170.2 204.658 174.827 198.925 174.827H193.5V201.547ZM193.501 166.718H197.312C198.327 166.718 199.149 165.899 199.149 164.889L199.143 149.353C199.142 148.339 198.315 147.517 197.297 147.52L193.501 147.532V166.718ZM89.6723 174.827H86.9951L87.0068 209.71L76.8422 207.604V140.023L94.7987 140.026C99.2188 140.027 102.801 143.591 102.801 147.992C102.801 150.109 102.794 166.221 102.794 166.221C102.793 168.991 101.499 171.071 99.4108 172.493L103.826 213.212L93.5988 211.077L89.6723 174.827ZM86.997 166.718H90.808C91.8229 166.718 92.6455 165.899 92.6455 164.889V149.324C92.6455 148.325 91.8327 147.516 90.83 147.516H86.997V166.718H86.997ZM130.392 127.756V123.957H121.923V137.751H126.035V132.819H130.392V129.034H126.035V127.756H130.392V127.756ZM0.925781 196.524V205.72L120.407 230.503L239.887 205.72V196.524L120.407 221.288L0.925781 196.524ZM50.9043 140.027H67.712L74.9965 207.221L64.8409 205.116L62.4202 182.907H56.658L54.4846 202.97L44.3136 200.862L50.9043 140.027ZM57.5327 174.827H61.5442L59.5377 156.32L57.5327 174.827ZM137.996 140.027V213.067L148.15 210.963V174.83H153.799V209.791L163.954 207.687V140.027H153.799V166.751H148.15V140.027H137.996ZM66.5477 121.658L68.6766 102.019L70.8056 121.658H83.0419L87.5109 80.2759H78.408L75.6233 105.911L72.8441 80.2759H64.5092L61.7301 105.911L58.9455 80.2759H49.8428L54.3116 121.658H66.5477ZM168.572 140.027V206.733L178.727 204.628V140.027H168.572V140.027ZM105.545 126.229H0.925781V135.425H105.545V126.229ZM141.241 121.658H132.105L129.262 104.479H127.314V121.658H118.267V88.3078L120.391 89.5245L135.408 80.9211C137.954 82.0235 140.874 84.5254 140.885 88.3281C140.885 89.9212 140.885 96.4268 140.885 96.4268C140.878 98.9307 139.609 100.87 138.016 102.218L141.241 121.658ZM131.838 87.8772C131.838 87.3838 131.436 86.988 130.941 86.9876L127.314 86.9847V97.7803H130.941C131.436 97.7816 131.838 97.3805 131.838 96.888C131.838 96.888 131.838 89.2516 131.838 87.8772ZM145.411 63.789V35.986L133.747 42.6779V56.6056L126.71 60.6368V35.6013H129.345L139.587 29.738L139.587 23.5454H126.71L126.711 19.714L132.8 14.5587V7.98979H107.994V14.5587L114.084 19.714V23.5454H101.207V29.738L111.45 35.6013H114.085V60.6368L107.047 56.6056V42.6779L95.4007 35.986V63.7892L120.406 78.1146L145.411 63.789ZM120.405 87.1648L87.5214 68.3252V9.08862L103.143 0.148438H137.668L153.29 9.08862V68.3252L120.405 87.1648ZM91.4608 66.0572L120.405 82.6398L149.35 66.0572V11.3579L136.617 4.07027H104.194L91.4608 11.3579V66.0572H91.4608Z"/>
</svg>
