<svg width="453" height="188" viewBox="0 0 453 188" fill="black" xmlns="http://www.w3.org/2000/svg">
<path d="M120.497 136.065C120.497 133.42 120.216 132.013 118.977 130.775C117.627 129.481 115.995 128.918 113.912 128.918C111.999 128.918 111.999 128.918 111.999 128.918C111.999 146.927 111.999 146.927 111.999 146.927C113.519 146.927 113.518 146.927 113.518 146.927C114.531 146.927 117.12 146.983 119.09 144.957C120.384 143.606 120.497 142.143 120.497 139.554C120.497 138.035 120.497 137.078 120.497 136.065ZM127.757 156.663C136.03 186.996 136.03 186.996 136.03 186.996C121.622 186.996 121.622 186.996 121.622 186.996C115.207 160.264 115.207 160.264 115.207 160.264C111.943 160.264 111.943 160.264 111.943 160.264C111.943 186.996 111.943 186.996 111.943 186.996C97.9859 186.996 97.9859 186.996 97.9859 186.996C97.9859 115.58 97.9859 115.58 97.9859 115.58C114.25 115.58 114.25 115.58 114.25 115.58C117.12 115.58 120.328 115.974 122.692 116.649C125.112 117.381 127.138 118.507 128.882 120.195C130.627 121.771 131.921 123.909 132.878 126.61C133.891 129.199 133.947 131.957 133.947 135.727C133.947 136.74 133.947 139.779 133.947 141.805C134.004 150.36 130.571 154.468 127.757 156.663ZM240.818 139.836C240.818 186.827 240.818 186.827 240.818 186.827C250.554 186.827 250.554 186.827 250.554 186.827C250.554 169.494 250.554 169.494 250.554 169.494C260.347 169.494 260.347 169.494 260.347 169.494C260.347 160.208 260.347 160.208 260.347 160.208C250.554 160.208 250.554 160.208 250.554 160.208C250.554 149.122 250.554 149.122 250.554 149.122C261.641 149.122 261.641 149.122 261.641 149.122C261.641 139.779 261.641 139.779 261.641 139.779H240.818V139.836ZM357.876 148.784C357.538 148.784 357.538 148.784 357.538 148.784C345.269 115.524 345.269 115.524 345.269 115.524C331.875 115.524 331.875 115.524 331.875 115.524C331.875 186.827 331.875 186.827 331.875 186.827C345.832 186.827 345.832 186.827 345.832 186.827C345.832 153.455 345.832 153.455 345.832 153.455C346.17 153.455 346.17 153.455 346.17 153.455C358.495 186.827 358.495 186.827 358.495 186.827C371.832 186.827 371.832 186.827 371.832 186.827C371.832 115.524 371.832 115.524 371.832 115.524C357.876 115.524 357.876 115.524 357.876 115.524V148.784ZM310.377 160.264C306.888 138.147 306.888 138.147 306.888 138.147C306.607 138.147 306.607 138.147 306.607 138.147C303.117 160.264 303.117 160.264 303.117 160.264H310.377ZM315.161 115.524C329.005 186.827 329.005 186.827 329.005 186.827C314.542 186.827 314.542 186.827 314.542 186.827C312.46 173.49 312.46 173.49 312.46 173.49C301.148 173.49 301.148 173.49 301.148 173.49C299.066 186.827 299.065 186.827 299.065 186.827C284.602 186.827 284.602 186.827 284.602 186.827C298.446 115.524 298.446 115.524 298.446 115.524H315.161ZM192.476 133.308C192.476 131.619 192.138 130.494 191.463 129.762C190.788 129.087 189.887 128.749 188.705 128.749C185.047 128.749 185.047 128.749 185.047 128.749C185.047 173.49 185.047 173.49 185.047 173.49C188.705 173.49 188.705 173.49 188.705 173.49C189.831 173.49 190.788 173.152 191.463 172.477C192.138 171.801 192.476 170.676 192.476 168.987V133.308ZM201.874 120.307C204.857 123.515 206.433 128.13 206.433 134.095C206.433 168.2 206.433 168.2 206.433 168.2C206.433 174.221 204.913 178.78 201.874 181.988C198.779 185.195 194.502 186.771 188.762 186.771C171.147 186.771 171.147 186.771 171.147 186.771C171.147 115.468 171.147 115.468 171.147 115.468C188.762 115.468 188.762 115.468 188.762 115.468C194.502 115.524 198.835 117.1 201.874 120.307ZM226.186 151.71C226.186 150.528 225.905 149.684 225.455 149.234C225.004 148.784 224.385 148.502 223.597 148.502C222.809 148.502 222.19 148.784 221.74 149.234C221.29 149.684 221.009 150.472 221.009 151.71C221.009 175.065 221.009 175.065 221.009 175.065C221.009 176.191 221.29 176.979 221.74 177.485C222.19 177.936 222.809 178.217 223.597 178.217C224.385 178.217 225.004 177.936 225.455 177.485C225.905 177.035 226.186 176.191 226.186 175.065V151.71ZM232.771 142.593C234.909 144.844 235.978 148.052 235.978 152.273C235.978 174.446 235.978 174.446 235.978 174.446C235.978 178.667 234.909 181.819 232.771 184.126C230.688 186.321 227.649 187.447 223.654 187.447C219.658 187.447 216.619 186.321 214.48 184.126C212.398 181.875 211.329 178.667 211.329 174.446C211.329 152.273 211.329 152.273 211.329 152.273C211.329 148.052 212.398 144.844 214.48 142.593C216.619 140.398 219.658 139.273 223.654 139.273C227.649 139.273 230.688 140.398 232.771 142.593ZM429.404 133.814C429.404 130.888 430.811 128.243 434.075 128.243C437.79 128.243 438.859 131.901 438.803 135.165C452.14 135.165 452.14 135.165 452.14 135.165C452.084 119.52 441.279 114.961 434.357 114.961C426.534 114.961 415.504 119.52 415.504 133.364C415.504 152.78 438.803 157.225 438.803 168.65C438.803 171.576 437.114 174.39 433.569 174.221C429.911 173.996 428.504 170.507 428.504 167.299C428.504 165.217 428.504 165.217 428.504 165.217C415.166 165.217 415.166 165.217 415.166 165.217C415.166 167.299 415.166 167.299 415.166 167.299C415.166 182.888 427.153 187.503 434.188 187.503C442.742 187.503 452.759 182.944 452.759 169.1C452.703 149.628 429.404 145.182 429.404 133.814ZM417.586 115.524C403.123 115.524 403.123 115.524 403.123 115.524C391.586 139.104 391.586 139.104 391.586 139.104C391.136 139.104 391.136 139.104 391.136 139.104C391.136 115.524 391.136 115.524 391.136 115.524C377.179 115.524 377.179 115.524 377.179 115.524C377.179 186.827 377.179 186.827 377.179 186.827C391.136 186.827 391.136 186.827 391.136 186.827C391.136 158.97 391.136 158.97 391.136 158.97C391.529 158.97 391.529 158.97 391.529 158.97C403.123 186.827 403.123 186.827 403.123 186.827C417.586 186.827 417.586 186.827 417.586 186.827C401.547 148.277 401.547 148.277 401.547 148.277L417.586 115.524ZM79.2455 132.745C79.2455 131.056 78.9078 129.931 78.2325 129.199C77.5572 128.524 76.6567 128.186 75.4749 128.186C74.3493 128.186 73.4489 128.524 72.8298 129.199C72.1545 129.931 71.8168 131.056 71.8168 132.745C71.8168 169.663 71.8168 169.663 71.8168 169.663C71.8168 171.351 72.1545 172.477 72.8298 173.152C73.5052 173.884 74.3493 174.221 75.4749 174.221C76.6004 174.221 77.5572 173.884 78.2325 173.152C78.9078 172.477 79.2455 171.351 79.2455 169.663V132.745ZM88.6438 119.745C91.6265 122.952 93.2023 127.567 93.2023 133.533C93.2023 168.875 93.2023 168.875 93.2023 168.875C93.2023 174.897 91.6828 179.455 88.6438 182.663C85.6048 185.871 81.2715 187.447 75.5312 187.447C69.8471 187.447 65.4575 185.871 62.4748 182.663C59.3795 179.455 57.9163 174.84 57.9163 168.875C57.9163 133.533 57.9163 133.533 57.9163 133.533C57.9163 127.511 59.3795 122.952 62.4748 119.745C65.4575 116.537 69.8471 114.961 75.5312 114.961C81.2152 114.905 85.5486 116.537 88.6438 119.745ZM38.5568 147.94C38.2754 147.94 38.2754 147.94 38.2754 147.94C34.6173 115.524 34.6173 115.524 34.6173 115.524C22.3488 115.524 22.3489 115.524 22.3489 115.524C18.6908 147.94 18.6908 147.94 18.6908 147.94C18.4657 147.94 18.4657 147.94 18.4657 147.94C14.8639 115.524 14.8639 115.524 14.8639 115.524C0.738281 115.524 0.738281 115.524 0.738281 115.524C10.0804 186.827 10.0804 186.827 10.0804 186.827C24.2623 186.827 24.2623 186.827 24.2623 186.827C28.3143 157.957 28.3143 157.957 28.3143 157.957C28.5957 157.957 28.5957 157.957 28.5957 157.957C32.6476 186.827 32.6476 186.827 32.6476 186.827C46.8296 186.827 46.8296 186.827 46.8296 186.827C56.228 115.524 56.228 115.524 56.228 115.524C42.1023 115.524 42.1023 115.524 42.1023 115.524L38.5568 147.94ZM152.8 115.524C138.9 115.524 138.9 115.524 138.9 115.524C138.9 186.827 138.9 186.827 138.9 186.827C167.207 186.827 167.207 186.827 167.207 186.827C167.207 173.49 167.207 173.49 167.207 173.49C152.8 173.49 152.8 173.49 152.8 173.49V115.524ZM290.68 115.524C253.706 115.524 253.706 115.524 253.706 115.524C253.706 128.805 253.706 128.805 253.706 128.805C265.243 128.805 265.243 128.805 265.243 128.805C265.243 186.884 265.243 186.884 265.243 186.884C279.2 186.884 279.2 186.884 279.2 186.884C279.2 128.805 279.2 128.805 279.2 128.805C290.736 128.805 290.736 128.805 290.736 128.805V115.524H290.68ZM226.749 112.485C235.81 103.424 235.81 103.424 235.81 103.424C235.81 28.4625 235.81 28.4625 235.81 28.4625C262.147 28.4625 262.147 28.4625 262.147 28.4625C244.026 10.3974 244.026 10.3974 244.026 10.3974C209.528 10.3974 209.528 10.3974 209.528 10.3974C191.407 28.4625 191.407 28.4625 191.407 28.4625C217.744 28.4625 217.744 28.4625 217.744 28.4625C217.744 103.424 217.744 103.424 217.744 103.424L226.749 112.485ZM244.476 69.7139C236.091 78.0993 236.091 78.0993 236.091 78.0993C248.585 90.6492 248.585 90.6492 248.585 90.6492C262.204 77.03 262.204 77.03 262.204 77.03C262.204 35.7223 262.204 35.7223 262.204 35.7223C244.533 35.7223 244.533 35.7223 244.533 35.7223V69.7139H244.476ZM186.51 79.056C226.749 119.294 226.749 119.294 226.749 119.294C266.987 79.056 266.987 79.056 266.987 79.056C266.987 26.3803 266.987 26.3802 266.987 26.3802C246.052 5.44497 246.052 5.44497 246.052 5.44497C207.389 5.44497 207.389 5.44497 207.389 5.44497C186.454 26.3802 186.454 26.3802 186.454 26.3802V79.056H186.51ZM226.749 126.16C181.614 81.082 181.614 81.082 181.614 81.082C181.614 24.3542 181.614 24.3543 181.614 24.3543C205.42 0.548886 205.42 0.548828 205.42 0.548828C248.078 0.548828 248.078 0.548828 248.078 0.548828C271.883 24.3542 271.883 24.3543 271.883 24.3543C271.883 81.082 271.883 81.082 271.883 81.082C226.749 126.16 226.749 126.16 226.749 126.16ZM209.021 69.7139C217.407 78.0993 217.407 78.0993 217.407 78.0993C204.969 90.6492 204.969 90.6492 204.969 90.6492C191.35 77.03 191.35 77.03 191.35 77.03C191.35 35.7223 191.35 35.7223 191.35 35.7223C209.021 35.7223 209.021 35.7223 209.021 35.7223V69.7139Z"/>
</svg>
